<?xml version="1.0" encoding="UTF-8"?>
<svg data-name="Layer 1" viewBox="0 0 719.8 687.3" xmlns="http://www.w3.org/2000/svg">
<path d="M668.8 182.6V144h-6v38.6a8 8 0 1 0 6 0Z" fill="#e6e6e6"/>
<path d="M682.8 572h-41V74h-16v498h-41a37 37 0 0 0-37 37h172a37 37 0 0 0-37-37Z" fill="#e6e6e6"/>
<path d="M547.9 148h171.8L709.2 16.7a18.2 18.2 0 0 0-18-16.7H576.3a18.2 18.2 0 0 0-18 16.7Z" fill="#6c63ff"/>
<path d="M61.1 457.5h524.5V404c0-144.6-117.7-262.3-262.3-262.3S61.1 259.4 61.1 404Z" fill="#3f3d56"/>
<path d="M61.1 457.5h524.5V404c0-144.6-117.7-262.3-262.3-262.3S61.1 259.4 61.1 404Z" opacity=".2"/>
<path d="M129 476h403.7a81.1 81.1 0 0 0-81-79.6H210.1a81.1 81.1 0 0 0-81 79.7Z" fill="#6c63ff"/>
<circle cx="81" cy="386.8" r="81" fill="#3f3d56"/>
<circle cx="572.5" cy="386.8" r="81" fill="#3f3d56"/>
<path d="M511.4 428v30.2H137.3V428H53.5v147.2a34 34 0 0 0 34 34h473.7a34 34 0 0 0 34-34V428Z" fill="#3f3d56"/>
<circle cx="81" cy="386.8" r="16.5" opacity=".2"/>
<circle cx="572.5" cy="386.8" r="16.5" opacity=".2"/>
<path d="m353.2 132.5s1.6 30.8 13 37.2 0 50.3 0 50.3l-53.5 1.6-3.3-51.8s6.5-21.1 3.3-30.8 40.5-6.5 40.5-6.5z" fill="#ffb8b8"/>
<path d="m413.1 560.1-19.4 22.7 30.7 29.1 16.2-32.4-27.5-19.4z" fill="#ffb8b8"/>
<path d="m275.4 560.1 19.5 22.7-30.8 29.1-16.2-32.4 27.5-19.4z" fill="#ffb8b8"/>
<path d="M402.6 345.5s116.6 38.9 110.1 76.1S456 590.1 456 590.1s-27.5 0-48.6-29.2l14.6-32.4s-6.5-17.8 4.9-21 17.8-60 17.8-60-82.6-6.4-100.4-37.2l-32.4-77.8Z" fill="#2f2e41"/>
<path d="m286 345.5s-116.7 38.9-110.2 76.1 56.7 168.5 56.7 168.5 27.5 0 48.6-29.2l-14.6-32.4s6.5-17.8-4.8-21-17.9-60-17.9-60 82.7-6.4 100.5-37.2l32.4-77.8zm132.8 254.3s16.2-14.6 17.8-3.3-1.6 56.7-1.6 56.7 16.2 34-8.1 34-35.7-25.9-32.4-51.8-11.4-35.6-11.4-35.6-17.8-35.6 0-38.9 24.3 4.9 24.3 4.9-6.4 29.1 11.4 34z" fill="#2f2e41"/>
<path d="m269.8 599.8s-16.2-14.6-17.9-3.3 1.7 56.7 1.7 56.7-16.2 34 8 34 35.7-25.9 32.5-51.8 11.3-35.6 11.3-35.6 17.8-35.6 0-38.9-24.3 4.9-24.3 4.9 6.5 29.1-11.3 34z" fill="#2f2e41"/>
<circle cx="328.1" cy="113.9" r="37.3" fill="#ffb8b8"/>
<path d="m333.7 177.8-22.6-17.8-55.1 26-1.6 147.3s-34 16.2-24.3 37.3c0 0 29.1 6.5 42 19.4s86-4.8 116.7-14.5 38.9-21.1 38.9-21.1l-30.8-43.7 17.8-111.8-55-37z" fill="#e6e6e6"/>
<path d="M373.4 88.5a32.7 32.7 0 0 1-2.3-3.4c-1.1-2.8.7-6.2-1-8.8-1.7-2.7-6.2-3.2-9.2-5-4.6-2.9-5.4-8.4-9.8-11.5-3.1-2.2-7.6-2.8-11.7-2.7s-8.3 1-12.5 1a37.6 37.6 0 0 1-16.4-3.4l3.1 6a30.8 30.8 0 0 1-9.7-3.8c-1.3 1.6 1.1 4.2-.4 5.8a5 5 0 0 1-2.2 1 52.2 52.2 0 0 0-16.5 8 8.3 8.3 0 0 0-2.8 3c-.8 1.8 0 3.8-.2 5.7 0 3.4-2.7 6.4-4.6 9.5s-2.8 7.1 0 9.8a25.1 25.1 0 0 1 1.9 1.7c2.7 3.2-2.2 8 .2 11.5 1 1.5 3.1 2.2 5 3.1a19.8 19.8 0 0 1 8.4 7.6l-1.4-10.4a1.7 1.7 0 0 1 .3-1.6c.7-.7 2.1-.4 3-.8 1.1-.6 1.2-1.7 1.2-2.7l-.4-7.6c-.1-3.4-.1-3.8 2.4-6.6 1.7-2 4.5-3 7.2-4 6.4-1.9 13.2-2.5 19.9-3.2 7.8-.8 16.6-4.6 22.7-.5 5 3.3 6.6 8.7 9 13.5 2.1 4.3 7.6 17 12.2 10.1 3-4.3 7.3-16.5 4.6-21.3Z" fill="#2f2e41"/>
<path d="M334.5 103a.6.6 0 0 0-.6.6v15.6a.6.6 0 0 0 .6.6h26.8a.6.6 0 0 0 .6-.6v-15.6a.6.6 0 0 0-.6-.5Z" fill="#3f3d56"/>
<path d="m337.5 104.4a1 1 0 0 0-1.1 1.1v11.9a1 1 0 0 0 1 1h21a1 1 0 0 0 1-1v-11.9a1 1 0 0 0-1-1z" fill="#ff6584"/>
<path d="m320.8 108.2h14v3.2h-14z" fill="#3f3d56"/>
<path d="M296.4 103a.6.6 0 0 0-.5.6v15.6a.6.6 0 0 0 .5.6h26.9a.6.6 0 0 0 .6-.6v-15.6a.6.6 0 0 0-.6-.5Z" fill="#3f3d56"/>
<path d="m299.4 104.4a1 1 0 0 0-1 1.1v11.9a1 1 0 0 0 1 1h20.9a1 1 0 0 0 1-1v-11.9a1 1 0 0 0-1-1z" fill="#6c63ff"/>
<path d="m281.8 297.8h93a14 14 0 0 1 14 14h-121a14 14 0 0 1 14-14z" fill="#3f3d56"/>
<path d="M381.3 296.8a5 5 0 0 0-1.6.2 3 3 0 0 0-6 .8 5.1 5.1 0 0 0-1 .2 3 3 0 0 0-1.5-1.9 5 5 0 0 0 2.2-2.4 4 4 0 1 0-.1-8 5 5 0 0 0-1.6.3 3 3 0 1 0-5.8 1.6l-.3.3a2.8 2.8 0 0 0-2-.7 5 5 0 0 0-9.7 1.6 5.1 5.1 0 0 0-1.2.2 3 3 0 0 0-.2-.5 3.8 3.8 0 0 0 1.3-2.7 4.3 4.3 0 0 0-4.5-4 5 5 0 0 0-1.6.2 3 3 0 1 0-5.8 1.6 5 5 0 0 0-2.1 4h-.1a3.6 3.6 0 0 0 0-.8 4.3 4.3 0 0 0-4.4-4 5 5 0 0 0-1.6.2 3 3 0 1 0-5.8 1.6 5 5 0 0 0 0 8.3 2.7 2.7 0 0 0 0 1.7 5 5 0 0 0-1.3 1.3 3 3 0 0 0-5.8.5 4.8 4.8 0 0 0-1.3-.5 5 5 0 0 0 1.9-2.2 4 4 0 1 0-.1-8 5 5 0 0 0-1.6.3 3 3 0 1 0-5.8 1.6l-.2.2h-.4a5 5 0 0 0-1.6.2l-.1-.2a3 3 0 0 0-3-3.6 5 5 0 1 0-8 5.6 5.2 5.2 0 0 0-1 .2 3 3 0 0 0-4.7-1.6 4.7 4.7 0 0 0-3.6-1.6 5 5 0 0 0-1.6.2 3 3 0 1 0-5.8 1.6 5 5 0 0 0-2.1 4.2 4.1 4.1 0 0 0-2.1.2 3 3 0 1 0-5.8 1.6 5 5 0 0 0 4 9 5 5 0 0 0 9.4 1.3 31.2 31.2 0 0 0 10.8-.5 5 5 0 0 0 9.3.3 4.9 4.9 0 0 0 2-.5 5 5 0 0 0 9-.5 4.8 4.8 0 0 1 5.4 3 7.8 7.8 0 0 1 5.7-3.1 4.9 4.9 0 0 0 5.4-2.1 5 5 0 0 0 9.5 3.2 4.9 4.9 0 0 0 2-.5 5 5 0 0 0 9-.5 4.9 4.9 0 0 0 2-.5 5 5 0 0 0 7.5 1.5 5 5 0 0 0 8.9 2 5 5 0 0 0 7.6-2 4 4 0 1 0-.1-8Zm-89.4-2.1h-.1a3 3 0 0 0-.5 0 5 5 0 0 0 .6 0Zm41.8-1.7v-.1a5 5 0 0 0 1.7-2.2 4.7 4.7 0 0 0 3.4-1.5 3 3 0 0 0 0 .6 3 3 0 0 0 .1.8 5 5 0 0 0-1.8 2.5 5 5 0 0 0-3.4 0Zm30 .4v-.2a3 3 0 0 0 .3 0 5 5 0 0 0 1 1.7l-.3.1a3 3 0 0 0-1-1.6Z" fill="#f9a825"/>
<path d="M277.8 302.8a10.4 10.4 0 0 0-10.4 11l6.8 93a10.4 10.4 0 0 0 10.4 10H372a10.4 10.4 0 0 0 10.5-10l6.7-93a10.4 10.4 0 0 0-10.4-11Z" fill="#3f3d56"/>
<path d="m282.8 302.8h6v114h-6z" fill="#6c63ff"/>
<path d="m299.8 302.8h6v114h-6z" fill="#6c63ff"/>
<path d="m316.8 302.8h6v114h-6z" fill="#6c63ff"/>
<path d="m333.8 302.8h6v114h-6z" fill="#6c63ff"/>
<path d="m350.8 302.8h6v114h-6z" fill="#6c63ff"/>
<path d="m367.8 302.8h6v114h-6z" fill="#6c63ff"/>
<path d="m367.8 359.3-19.5 11.3s-47 38.9-14.6 45.3 40.5-27.5 40.5-27.5l11.4-13z" fill="#ffb8b8"/>
<path d="m275.4 351.2 19.5 11.3s47 38.9 14.5 45.3-40.4-27.5-40.4-27.5l-11.4-13z" fill="#ffb8b8"/>
<path d="m393.7 197.3 21 1.6s16.2 14.6 14.6 34c0 0 14.6 42.1 11.3 60 0 0 3.3 29.1-1.6 40.4s-45.3 55.1-45.3 55.1-37.3-29.1-35.7-30.8l48.6-48.6-24.3-32.3ZM256 186l-.8.8s-36.5 15.3-34.8 34.8c0 0-14.6 42-11.4 60 0 0-3.2 29 1.6 40.4s45.4 55 45.4 55 37.2-29 35.6-30.7L243 297.7l24.3-32.4Z" fill="#e6e6e6"/>
</svg>
