<?xml version="1.0" encoding="UTF-8"?>
<svg data-name="Layer 1" viewBox="0 0 699.9 568.8" xmlns="http://www.w3.org/2000/svg">
<path d="M604 335.3H54.7a26.5 26.5 0 0 1-26.4-26.5V100.3A26.5 26.5 0 0 1 54.7 74H604a26.5 26.5 0 0 1 26.5 26.4v208.5a26.5 26.5 0 0 1-26.5 26.5Z" fill="#fff"/>
<path d="M604 335.3H54.7a26.5 26.5 0 0 1-26.4-26.5V100.3A26.5 26.5 0 0 1 54.7 74H604a26.5 26.5 0 0 1 26.5 26.4v208.5a26.5 26.5 0 0 1-26.5 26.5ZM54.7 76.2a24.2 24.2 0 0 0-24.1 24.1v208.5A24.2 24.2 0 0 0 54.7 333H604a24.2 24.2 0 0 0 24.2-24.2v-78.6a154 154 0 0 0-154-154Z" fill="#e6e6e6"/>
<path d="M348.7 315c-7.1-7.1-13.8-15-14-21.5-1.6-56.4-18-70-17.2-92a.7.7 0 0 0-.5-.7.7.7 0 0 0-.8.6c-4.5 36.2 11.9 69.4 11.3 94a55.7 55.7 0 0 0 4.5 26c3.5 7 8.5 10.4 13.2 12h8.9a100.6 100.6 0 0 0-5.4-18.4ZM390.2 198.9a.7.7 0 0 0-1 0c-21.5 28.3-34.6 90.2-37.3 116a104.9 104.9 0 0 1 5.2 18.5h6a10.5 10.5 0 0 0 1.1-3 43.2 43.2 0 0 0 1.1-9c.3-6.8-.1-17-1.8-32a134.2 134.2 0 0 1 26.8-89.6.7.7 0 0 0 0-1Zm-32.7 133.4a.8.8 0 0 1 0 .2v-.2ZM164.9 321.4c-.4 6.9-1 11-1 11.1a.7.7 0 0 1-.7.6.7.7 0 0 1-.6-.8 10 10 0 0 1-2.2 1h-3c-2-.7-4-3.7-4.5-12a163 163 0 0 1 3.6-35c4.4-24-3.2-59.8-25.1-88.5a.7.7 0 0 1 .1-1 .7.7 0 0 1 1 .2c22 29 29.4 64.3 31.7 88.8a241 241 0 0 1 .7 35.6Z" fill="#3f3d56"/>
<path d="M344.4 381.1H305a7.3 7.3 0 1 1 0-14.6h39.4a7.3 7.3 0 0 1 0 14.6ZM368 408.1h-86.5a7.3 7.3 0 1 1 0-14.6H368a7.3 7.3 0 0 1 0 14.6Z" fill="#e6e6e6"/>
<path d="m325.2 254a127 127 0 1 1 127-127 127.1 127.1 0 0 1-127 127zm0-252a125 125 0 1 0 125 125 125 125 0 0 0-125-125z" fill="#f2f2f2"/>
<path d="M353.3 142.6c-4 .2-8 .6-12 1.2l-25.6 3.6q-8 1-15.9 2.2a24.8 24.8 0 0 1-.7-3.7 27.2 27.2 0 0 1 53.9-7.1 25 25 0 0 1 .3 3.8Z" fill="#6c63ff"/>
<ellipse transform="rotate(-81.7 291.6 516.4)" cx="512.3" cy="454.7" rx="2.8" ry="4.1" fill="#fff"/>
<ellipse transform="rotate(-81.7 318 513.8)" cx="538.8" cy="452.1" rx="2.8" ry="4.1" fill="#3f3d56"/>
<ellipse transform="rotate(-81.7 284.3 495)" cx="505.1" cy="433.3" rx="2.8" ry="4.1" fill="#ff6584"/>
<ellipse transform="rotate(-89.6 287.4 468.3)" cx="495.8" cy="425.1" rx="2.6" ry="1.8" fill="#e6e6e6"/>
<ellipse transform="rotate(-89.6 283.5 452)" cx="492" cy="408.7" rx="2.6" ry="1.8" fill="#3f3d56"/>
<ellipse transform="rotate(-89.6 313.8 480.7)" cx="522.2" cy="437.5" rx="2.6" ry="1.8" fill="#e6e6e6"/>
<ellipse transform="rotate(-89.6 301 487)" cx="509.5" cy="443.9" rx="2.6" ry="1.8" fill="#ff6584"/>
<ellipse transform="rotate(-89.6 318.8 498.8)" cx="527.2" cy="455.6" rx="2.6" ry="1.8" fill="#3f3d56"/>
<ellipse transform="rotate(-75.8 531.3 376)" cx="762.7" cy="298.1" rx="3.6" ry="5.2" fill="#fff"/>
<ellipse transform="rotate(-75.8 497.5 375.8)" cx="728.9" cy="297.9" rx="3.6" ry="5.2" fill="#3f3d56"/>
<ellipse transform="rotate(-75.8 537.7 404)" cx="769.1" cy="326.2" rx="3.6" ry="5.2" fill="#ff6584"/>
<ellipse transform="rotate(-83.6 562.1 394.8)" cx="779.7" cy="337.8" rx="3.3" ry="2.3" fill="#e6e6e6"/>
<ellipse transform="rotate(-83.6 565 416)" cx="782.5" cy="359" rx="3.3" ry="2.3" fill="#3f3d56"/>
<ellipse transform="rotate(-83.6 530.3 375.6)" cx="747.9" cy="318.6" rx="3.3" ry="2.3" fill="#e6e6e6"/>
<ellipse transform="rotate(-83.6 547.4 369.2)" cx="765" cy="312.2" rx="3.3" ry="2.3" fill="#ff6584"/>
<ellipse transform="rotate(-83.6 526.4 351.9)" cx="744" cy="294.9" rx="3.3" ry="2.3" fill="#3f3d56"/>
<path d="M578.2 93.7c-5.2-21.7-4.3-43 4.5-63.9a4.9 4.9 0 0 1 5.2-4.5l48.2 3.4a4.9 4.9 0 0 1 4.6 5.2L636 97.8a4.9 4.9 0 0 1-5.2 4.5L582.7 99a4.9 4.9 0 0 1-4.5-5.2Z" fill="#f2f2f2"/>
<path d="m583.2 74.7c-4-10.7-1.4-25.4 3-41.1a4.6 4.6 0 0 1 4.8-4.2l41.5 2.9a4.6 4.6 0 0 1 4.2 4.9l-4 56.8a4.6 4.6 0 0 1-4.9 4.3l-25.7-1.9a20.4 20.4 0 0 1-18.9-21.7z" fill="#fff"/>
<path d="M626.8 48.4c-9.7 4.8-17.4 9.2-21.4 19.3-2.6-6-5.2-8-7.8-14-.8-1.8-3.4-.3-2.6 1.5l9.2 21.3c.6 1.2 2.4.8 2.8-.4A41.7 41.7 0 0 1 628.4 51c1.7-.9.2-3.4-1.6-2.6Z" fill="#6c63ff"/>
<path d="m192.2 371.7c-5.2-21.7-4.3-43 4.5-63.9a4.9 4.9 0 0 1 5.2-4.5l48.2 3.4a4.9 4.9 0 0 1 4.6 5.2l-4.6 63.9a4.9 4.9 0 0 1-5.2 4.5l-48.2-3.4a4.9 4.9 0 0 1-4.5-5.2z" fill="#f2f2f2"/>
<path d="m197.2 352.7c-4-10.7-1.4-25.4 3-41.1a4.6 4.6 0 0 1 4.8-4.2l41.5 2.9a4.6 4.6 0 0 1 4.2 4.9l-4 56.8a4.6 4.6 0 0 1-4.9 4.3l-25.7-1.9a20.4 20.4 0 0 1-18.9-21.7z" fill="#fff"/>
<path d="M240.8 326.4c-9.7 4.8-17.4 9.2-21.4 19.3-2.6-6-5.2-8-7.8-14-.8-1.8-3.4-.3-2.6 1.5l9.2 21.3c.6 1.2 2.4.8 2.8-.4a41.7 41.7 0 0 1 21.4-25.1c1.7-.9.2-3.4-1.6-2.6Z" fill="#6c63ff"/>
<path d="M3.2 106.7C-2 85-1.1 63.7 7.7 42.8a4.9 4.9 0 0 1 5.2-4.5l48.2 3.4a4.9 4.9 0 0 1 4.6 5.2L61 110.8a4.9 4.9 0 0 1-5.2 4.5L7.7 112a4.9 4.9 0 0 1-4.5-5.2Z" fill="#f2f2f2"/>
<path d="M8.2 87.7c-4-10.7-1.4-25.4 3-41.1a4.6 4.6 0 0 1 4.8-4.2l41.5 2.9a4.6 4.6 0 0 1 4.2 4.9l-4 56.8a4.6 4.6 0 0 1-4.9 4.3l-25.7-1.9A20.4 20.4 0 0 1 8.2 87.7Z" fill="#fff"/>
<path d="M51.8 61.4c-9.7 4.8-17.4 9.2-21.4 19.3-2.6-6-5.2-8-7.8-14-.8-1.8-3.4-.3-2.6 1.5l9.2 21.3c.6 1.2 2.4.8 2.8-.4A41.7 41.7 0 0 1 53.4 64c1.7-.9.2-3.4-1.6-2.6Z" fill="#6c63ff"/>
<path d="M377 558.5a1.2 1.2 0 0 1-.8-2.1v-.4a3.3 3.3 0 0 0-6 0c-1 2.4-2.2 4.7-2.5 7.3a9.7 9.7 0 0 0 .1 3.3 38.7 38.7 0 0 1-3.5-16.1 37.4 37.4 0 0 1 .2-4.2l.6-3.4a39.2 39.2 0 0 1 7.7-16.6 10.4 10.4 0 0 0 4.4-4.5 8 8 0 0 0 .7-2.2 9.8 9.8 0 0 1-.6-3.3c-.3-.5-.8-.7-1.2-1.1-1.6-2.2-3.8-1.8-5 1.1-2.4 1.3-2.4 3.3-.9 5.3 1 1.2 1.1 3 2 4.3l-.3.3a39.4 39.4 0 0 0-4.1 6.5 16.4 16.4 0 0 0-1-7.6c-1-2.2-2.7-4.1-4.3-6a3.4 3.4 0 0 0-6 1.6l.7.5a1.6 1.6 0 0 1-.7 3 16.4 16.4 0 0 0 .4 2.4c-2 7.7 2.3 10.5 8.5 10.6l.4.2a40.3 40.3 0 0 0-2.2 10.2 38.2 38.2 0 0 0 0 6.2 10 10 0 0 0-3.4-6c-2.7-2-6.4-2.9-9.3-4.6a1.9 1.9 0 0 0-2.9 1.8 11 11 0 0 1 1.3.7l.6.4a1.6 1.6 0 0 1-.6 3h-.1a16.4 16.4 0 0 0 3 4.7c1.2 6.7 6.6 7.4 12.3 5.4a40.3 40.3 0 0 0 2.7 8h9.6l.1-.4a11 11 0 0 1-2.6-.2l2.1-2.6 1.1-1.4a16 16 0 0 0-.4-4.1ZM617.7 558.5a1.2 1.2 0 0 0 1-2.1l-.2-.4a3.3 3.3 0 0 1 6 0c1 2.4 2.3 4.7 2.6 7.3a9.7 9.7 0 0 1-.1 3.3 38.7 38.7 0 0 0 3.5-16.1 37.4 37.4 0 0 0-.2-4.2l-.6-3.4a39.2 39.2 0 0 0-7.7-16.6 10.4 10.4 0 0 1-4.4-4.5 8 8 0 0 1-.7-2.2 9.8 9.8 0 0 0 .6-3.3c.3-.5.9-.7 1.2-1.1 1.6-2.2 3.8-1.8 5 1.1 2.4 1.3 2.4 3.3.9 5.3-1 1.2-1 3-2 4.3l.3.3a39.4 39.4 0 0 1 4.2 6.5 16.4 16.4 0 0 1 1-7.6c.9-2.2 2.6-4.1 4.2-6a3.4 3.4 0 0 1 6 1.6l-.7.5a1.6 1.6 0 0 0 .7 3 16.4 16.4 0 0 1-.4 2.4c2 7.7-2.3 10.5-8.5 10.6l-.4.2a40.3 40.3 0 0 1 2.2 10.2 38.2 38.2 0 0 1 0 6.2 10 10 0 0 1 3.4-6c2.7-2 6.4-2.9 9.3-4.6a1.9 1.9 0 0 1 2.9 1.8 11 11 0 0 0-1.3.7l-.6.4a1.6 1.6 0 0 0 .6 3h.1a16.4 16.4 0 0 1-3 4.7c-1.2 6.7-6.6 7.4-12.3 5.4a40.3 40.3 0 0 1-2.7 8H618l-.1-.4a11 11 0 0 0 2.7-.2l-2.2-2.6-1.1-1.4a16 16 0 0 1 .4-4.1Z" fill="#f2f2f2"/>
<path d="m559.6 557.7h-9l-4.3-34.9h13.3v34.9z" fill="#ffb6b6"/>
<path d="M560 567.1H532v-.3a10.8 10.8 0 0 1 10.9-10.9l5-3.8 9.5 3.8h2.4Z" fill="#2f2e41"/>
<path d="m491.6 557.7h-9l-4.3-34.9h13.3v34.9z" fill="#ffb6b6"/>
<path d="M492 567.1H464v-.3a10.8 10.8 0 0 1 10.9-10.9l5-3.8 9.5 3.8h2.4Z" fill="#2f2e41"/>
<path d="m567.7 263-15 6.1c-.2 10.6 10.2 32.5 10.2 32.5l5.1 40.2a7.2 7.2 0 1 0 12.4-1l.5-50.5Z" fill="#ffb6b6"/>
<path d="m537.8 228.8a17.1 17.1 0 0 1 23 12.8l2 10s21.6 29.3 19.6 40l-23.2 3s-3.9-14.8-10-19.4c-3.9-2.8-11.3-15.9-15.8-27.4-3.5-8.7-4.4-15.6 4.4-19z" fill="#6c63ff"/>
<path d="M476.4 316.8s-16.7 16.3-13.2 20 11.8 9.1 4.2 10-10.7 2.7-4.2 4.3 5.6 5.6 5.6 5.6-9.9 47-2.4 78c0 0 4.2 84.7 6.8 91.3s3.6 2.6 2.6 6.6-3-3-1 4a92.5 92.5 0 0 1 2.6 11.2l19.6-3s3.1-10 0-12.6-6-1-2.6-6.8 4.4 2.2 3.4-5.8 3.2-51.2-3.4-74.1l12.2-64.2 19.3 66.5s10.3 81.1 13.6 84 8.3-2.2 3.3 2.8-4.9 4.2-5 5c-1 9.2 27.7-.8 27.7-.8a51.4 51.4 0 0 1 0-7c.3-2.2-3.3-2.9 0-5s-1.6 0-1.6 0-7.4-59.9-13-78l-6.5-88.4s-.4 1.8 0-2.5 3.4-1.3.4-4.3-5-4.5-3-6.7 7.5-6.8 4.3-9.5-9.7-20.6-9.7-20.6l-62.5.5" fill="#2f2e41"/>
<path d="m499.9 217.6 11.3-12.7 17.8 2 11.4 16a24.3 24.3 0 0 1 18.5 27.8c-2.2 12.7-7 25.1-10.7 36-.4 1.3 1.2 6-1.2 3.8s-1 3.2-1.5 4.7c-2 7.4-3 13.6-1 18.3.9 2.4 6.7 7.3 2.4 6.6s1.2 3.9 1.7 5.5c2.4 10.2-.7 14-14.2 12-18-2.6-78.5-8.8-66.8-20.5s14.3-31.3 14.3-31.3l.5-44.8a20 20 0 0 1 16-23.2l1.5-.2Z" fill="#6c63ff"/>
<path d="m496.5 269-15.4-4.9c-6.9 8.1-12.7 31.7-12.7 31.7L446.8 330a7.2 7.2 0 1 0 10.2 7.1l32.5-38.7Z" fill="#ffb6b6"/>
<path d="M495.2 223.6a17.1 17.1 0 0 1 9.7 24.5l-5 9s-1.2 40.5-9.5 47.5L470 288s6.3-13.9 4.5-21.4c-1.2-4.5 1.4-19.3 5.2-31.1 2.9-9 6.5-14.8 15.5-11.9Z" fill="#6c63ff"/>
<circle cx="525" cy="182.3" r="21.5" fill="#ffb6b6"/>
<path d="M529 203.4c-6-1.5-6.3-3.3-12.3-4.8-1.9-.4-4-1.2-4.6-3a4.5 4.5 0 0 1 1-4 36.9 36.9 0 0 0 2.7-3.2 6.5 6.5 0 0 0-4.5-9.8c-1.9-.3-3.8.2-5.7 0-2.5-.4-6.3-10-4.6-11.9 1.5-2 4.2-3 5-5.4.6-1.6.3-3.3.6-5 .4-2.3 5.2 4.3 4.6 2-1.6-5.8 25.3-6.7 28 .7 1.1 2.8 4 3.2 6.1 5.2 1.5 1.3 4.9 5.5 5.4 7.7a16.3 16.3 0 0 1-.3 6.9c-2.2 10.5-5.9 19.9-15.7 24.2" fill="#2f2e41"/>
<path d="m698.7 568.5-389.8.3a1.2 1.2 0 0 1 0-2.4l389.8-.3a1.2 1.2 0 1 1 0 2.4Z" fill="#cacaca"/>
<path d="M124 263.2a36 36 0 0 0-26-10.6h-.4a37 37 0 0 1-18.6-5l-.6-.4.5-.5a36 36 0 0 0 6.3-9 11 11 0 0 1-10.2 2.6 11.7 11.7 0 0 1-7-5.3c-3.4-5.6-8.9-13.6-7.4-19.4 2.2-8.4 31.8 5.2 12.1-27.4-3.4-5.6 7.7-10.7 7.7-17.2v-.5a52.4 52.4 0 0 1 1.5-12.6l.1-.4h.5a35.4 35.4 0 0 0 8.2-.7 28 28 0 0 1-7.4-2l-.5-.2.2-.5c10.8-6.7 35.3-3.2 49.5-35.7 11.5-26.3 52.2 23.4 52.2 52.1 0 3-3 6.9-.8 8.8 23.5 21 7.3 34.4 2.2 48-1.2 3.2 1.4 6.7 1.4 10.2v2.8l-.9-.6a26 26 0 0 1-4.2-3.5 22.6 22.6 0 0 1-.8 19.5c-2.4 4.7-5.5 12.4-7 9.9-11.3-18.4-26.8-51.5-25.7-13 .4 13.1-15.6 20.1-24.8 10.8l-.2-.2Z" fill="#e6e6e6"/>
<ellipse transform="rotate(-81.7 144.6 393.4)" cx="365.3" cy="331.7" rx="2.8" ry="4.1" fill="#fff"/>
<ellipse transform="rotate(-81.7 171 390.8)" cx="391.8" cy="329.1" rx="2.8" ry="4.1" fill="#3f3d56"/>
<ellipse transform="rotate(-81.7 137.3 372)" cx="358.1" cy="310.3" rx="2.8" ry="4.1" fill="#ff6584"/>
<ellipse transform="rotate(-89.6 140.4 345.3)" cx="348.8" cy="302.1" rx="2.6" ry="1.8" fill="#e6e6e6"/>
<ellipse transform="rotate(-89.6 136.5 329)" cx="345" cy="285.7" rx="2.6" ry="1.8" fill="#3f3d56"/>
<ellipse transform="rotate(-89.6 166.8 357.7)" cx="375.2" cy="314.5" rx="2.6" ry="1.8" fill="#e6e6e6"/>
<ellipse transform="rotate(-89.6 154 364)" cx="362.5" cy="320.9" rx="2.6" ry="1.8" fill="#ff6584"/>
<ellipse transform="rotate(-89.6 171.8 375.8)" cx="380.2" cy="332.6" rx="2.6" ry="1.8" fill="#3f3d56"/>
<path d="M371.2 276.5c-.5-32.7-11.5-26.3-24-9-1.8 2.5-4.7-5.1-7.1-9.8a22.6 22.6 0 0 1-.7-19.5 26 26 0 0 1-4.3 3.5l-.8.5v-2.7c0-3.5 2.5-7 1.3-10.2-5-13.6-21.3-27 2.2-48 2.2-2-.7-5.8-.7-8.8 0-28.7 55.4-80.7 52.1-52-5.3 46.8 27 37.5 49.5 35.6l.2.5-.5.2a28 28 0 0 1-7.4 2 35.4 35.4 0 0 0 8.3.7h.4l.1.4a52.4 52.4 0 0 1 1.6 12.6v.5a23 23 0 0 0 7.6 17.2 37 37 0 0 1 12 27.4c0 6-4 14-7.5 19.7a11.2 11.2 0 0 1-8.2 5.3 10.9 10.9 0 0 1-8.8-2.9 36 36 0 0 0 6.3 9l.5.5-.6.4a37 37 0 0 1-18.6 5h-.4a36 36 0 0 0-25.9 10.6 37.3 37.3 0 0 1-26.6 11.3Z" fill="#f2f2f2"/>
<path d="M356.8 254.6a16.4 16.4 0 0 1-28 6.7c-9.5-10.3-14.2-2.3-14.4 20.6 0 3-6.6-2.2-11.1-5a22.6 22.6 0 0 1-10.5-16.5 26 26 0 0 1-1.9 5.2l-.4.8-.5-.8-1-1.5c-1.7-3-1.2-7.4-3.9-9.5-11.2-9.2-32-12.6-22.3-42.6 1-2.7-2.4-5.8-5-7.2-42-22.5-14.6-87.4 18.8-71.3 32 15.4 48 5.6 60.8 6l.3.3-.3.4a28 28 0 0 1-5.4 5.4 35.4 35.4 0 0 0 7.5-3.5l.4-.3.3.4a52.4 52.4 0 0 1 7.7 10.1l.2.4a23 23 0 0 0 15.3 11 37 37 0 0 1 24.2 17.6c3 5.2 3.5 13.9 3.4 20.5a11.7 11.7 0 0 1-3.4 8.2 11 11 0 0 1-10 2.8 36 36 0 0 0 10 4.6l.6.2-.3.6a37 37 0 0 1-13.6 13.7l-.3.2a36 36 0 0 0-17 22.2l-.2.3Z" fill="#e6e6e6"/>
<path d="m120 235.5.1-.2a27 27 0 0 0-5.6-9.4c-3.8-4.3-11-9.5-23-10a.5.5 0 0 0-.3.1v.2c3 7.6 8 14.2 20.5 11.7 6-1.3 7.9 7.6 7.9 7.6h.3ZM301 240.5l.1-.2a27 27 0 0 0-5.6-9.4c-3.8-4.3-11-9.5-23-10a.5.5 0 0 0-.3.1c0 .1.2.1 0 .2-14.6 12.7 4 13.1 20.5 11.7 6.2-.6 7.9 7.6 7.9 7.6h.3ZM152.5 158.4c.2 0 .3-.2.4-.1 3 2.2 7.4-.4 2.1-10.6-2.6-5.2-1.6-14.5-10.1-23a.5.5 0 0 0-.4 0c-.2 0-.2 0-.1.1 8.4 8.4 7.3 16.6 7.2 22.4a80.5 80.5 0 0 0 .7 11l.2.2ZM290 188.5l.1-.2a13.4 13.4 0 0 1-5.6-9.4c-3-28.4-10.6-18.6-23-10l-.3.1v.2c12 .6 16.6 7.4 20.5 11.7a80.5 80.5 0 0 0 7.9 7.6h.3Z" fill="#f2f2f2"/>
<path d="m419.1 227.5-.1-.2a15 15 0 0 0 5.5-9.4c6.7-40.5 12.4-27.7 23-10l.4.1-.1.2c-11.9.6-16.6 7.4-20.4 11.7a80.5 80.5 0 0 1-8 7.6c0 .1 0 .1-.2 0Z" fill="#fff"/>
<path d="m157.1 219.5-.1-.2s7.6-3.4 5.5-9.4c-7.4-21.5 7.6-14.7 23-10a.7.7 0 0 1 .4.1l-.1.2c-11.9.6-16.6 7.4-20.4 11.7a80.5 80.5 0 0 1-8 7.6c0 .1 0 .1-.2 0ZM344.1 209.5l-.1-.2a47 47 0 0 0 5.5-9.4c14.1-31 17.4-26.2 23-10l.4.1-.1.2c-11.9.6-16.6 7.4-20.4 11.7a80.5 80.5 0 0 1-8 7.6c0 .1 0 .1-.2 0Z" fill="#f2f2f2"/>
</svg>
