<?xml version="1.0" encoding="UTF-8"?>
<svg viewBox="0 0 538.72 579.82" xmlns="http://www.w3.org/2000/svg">
<path d="M506.77 441.46H101.83c-7.512-.009-13.6-6.097-13.609-13.609V98.131c.009-7.512 6.097-13.6 13.609-13.609h404.94c7.512.009 13.6 6.097 13.609 13.609v329.72c-.009 7.512-6.097 13.6-13.609 13.609z" fill="#e6e6e6"/>
<path d="M467.42 432.28H111.01c-7.512-.009-13.6-6.097-13.609-13.609v-311.36c.009-7.512 6.097-13.6 13.609-13.609h386.57c7.512.009 13.6 6.097 13.609 13.609v281.19c-.027 24.164-19.61 43.747-43.774 43.774z" fill="#fff"/>
<path d="M369.48 164.11H206.73a3.51 3.51 0 0 1 0-7.02h162.75a3.51 3.51 0 0 1 0 7.02z" fill="#6c63ff"/>
<path d="m451.87 201.55h-245.14a3.51 3.51 0 0 1 0-7.02h245.14a3.51 3.51 0 0 1 0 7.02zm0 37.45h-245.14a3.51 3.51 0 0 1 0-7.02h245.14a3.51 3.51 0 0 1 0 7.02zm0 37.45h-245.14a3.51 3.51 0 0 1 0-7.02h245.14a3.51 3.51 0 0 1 0 7.02zm0 37.45h-245.14a3.51 3.51 0 0 1 0-7.02h245.14a3.51 3.51 0 0 1 0 7.02z" fill="#e6e6e6"/>
<path d="m440.85 373.57c-9.815 0-17.772-7.957-17.772-17.772s7.957-17.772 17.772-17.772 17.772 7.957 17.772 17.772-7.957 17.772-17.772 17.772z" fill="#6c63ff"/>
<path d="m450.85 354.95-5.038-7.354a1.494 1.494 0 0 0-2.47 1.683l.004.006 3.259 4.756H433.84a1.753 1.753 0 0 0-.01 3.506h12.935l-3.418 4.99a1.494 1.494 0 0 0 2.465 1.69l5.038-7.354a1.972 1.972 0 0 0 0-1.923z" fill="#fff"/>
<path d="M536.95 35.893H71.66a1.807 1.807 0 0 1 0-3.613h465.29a1.807 1.807 0 0 1 0 3.613z" fill="#cacaca"/>
<path d="M129.88 392.04a6.351 6.351 0 0 0 .004-9.74l-3.853-33.294-12.234 2.832 6.8 31.561a6.386 6.386 0 0 0 9.283 8.641z" fill="#ffb6b6"/>
<path d="m128.62 354.43-14.164 8.836s-.862 5.179-1.836-7.836c-.102-1.359.846-3.725.742-5.12-.118-1.573-4.623-2.288-4.742-3.88-.085-1.133 1.218-2.14 1.134-3.27l-.378-5.09c-.104-1.4-1.656-2.288-1.756-3.64-.101-1.364 1.25-3.19 1.155-4.483-.714-9.688 1.755-34.063 1.755-34.559a7.07 7.07 0 0 0-1.505-3.391l.756-2.261-.5-4.243a25.9 25.9 0 0 1 3.339-16.063l3.597-2.355 16.598 27.917c-6.984 24.158-11.544 33.647-4.195 59.438z" fill="#6c63ff"/>
<path d="m117.57 562.59h8.57l4.07-33.05h-12.64z" fill="#ffb6b6"/>
<path d="m114.77 556.72 13.689-.817v5.865l13.014 8.988a3.663 3.663 0 0 1-2.082 6.678h-16.297l-2.809-5.801-1.096 5.8h-6.145l1.726-20.713z" fill="#2f2e41"/>
<path d="M165.7 562.59h8.56l4.08-33.05H165.7z" fill="#ffb6b6"/>
<path d="m162.9 556.72 13.689-.817v5.865l13.014 8.988a3.663 3.663 0 0 1-2.082 6.678h-16.297l-2.809-5.801-1.096 5.8h-6.145l1.726-20.713zM113.93 534.09h.033l1.648-78.705a14.051 14.051 0 0 1 .184-13.278l.236-.427-.611-2.835a18.062 18.062 0 0 1 1.032-10.87l1.537-50.125c-5.492-35.593 20.681-58.805 20.681-58.805h39.208l8.418 28.92c5.564 54.215 4.554 132.01-4.276 183.2l.24.121a2.034 2.034 0 0 1 .831 2.682c-.408 1.182-1.441 1.898-2.308 1.599l-20.706-.72a2.034 2.034 0 0 1-.83-2.682c.408-1.182 1.441-1.898 2.308-1.599l1.408.712-1.453-2.957a11.029 11.029 0 0 1 .898-11.236l-.254-6.51a9.915 9.915 0 0 1-1.94-9.343l1.396-4.559-1.65-42.217.333-9.47-.686-10.746-3.174-48.33-12.014 59.432-12.27 89.347c.6.542.863 1.365.69 2.155a2.334 2.334 0 0 1-2.313 1.776H113.87a2.27 2.27 0 0 1-2.185-2.873 2.297 2.297 0 0 1 2.245-1.656z" fill="#2f2e41"/>
<path d="m209.21 379.1a6.352 6.352 0 0 0-1.846-9.563l-10.11-31.956-11.472 5.106 12.672 29.694a6.386 6.386 0 0 0 10.756 6.72z" fill="#ffb6b6"/>
<path d="M167.61 277.51s11.53 40.802 11.008 44.924c-1.077 8.5-54.06 34.627-58 23l.494-3.822c-1.99-3.981 10.154-19.78 10.744-21.848.749-2.642-2.643-11.319-2.643-11.319s2.345-7.92 1.97-12.825c-.381-4.904-1.512-4.148-5.66-7.172-4.147-3.017-10.938-16.972-10.938-16.972s3.018-13.58 3.018-16.223 12.394-7.144 13.9-8.649a14.131 14.131 0 0 0 1.643-2.823c.306-.61.111-2.025.437-2.726.209-.457.937-.173 1.152-.644.208-.458.028-.985.236-1.436.27-.597.922-1.117 1.179-1.679 1.179-2.58 2.185-4.682 2.497-4.682.749 0 24.9 3.399 24.9 3.399a36.223 36.223 0 0 0 4.522 5.66c2.642 2.635 15.009 9.051 15.009 9.051L167.61 277.51z" fill="#6c63ff"/>
<path d="M200.22 346.15c-1.887 1.887-11.222 10.549-11.604 8.28-.375-2.26-.578-2.53-2.09-3.28-1.512-.756-1.512-1.13-1.887-3.773-.374-2.643-3.773-5.285-3.392-6.416.375-1.13.025.308.025-.83 0-1.13-1.13-5.278-2.642-6.034-1.505-.756-3.774-1.505-2.636-3.392 1.13-1.886-10.647-58.484-10.647-58.484l10.563-20.745 7.165-.756s2.177 1.246 2.86 12.477c.034.569.654 1.613.68 2.234.022.516-.548.602-.533 1.155l.01.358c.014.55 1.501.956 1.523 1.487.04.95.624 7.005.687 7.895.071 1.003.155 1.97.251 2.899 1.043 10.12 1.416 10.976 2.062 14.206 1 5 5.146 34.202 5.146 34.202s3.017.749 3.017 3.392 3.327 7.954 1.822 10.97c-1.512 3.025 1.505 2.269-.381 4.155z" fill="#6c63ff"/>
<circle cx="148.87" cy="213.94" r="17.894" fill="#ffb8b8"/>
<path d="M110.32 251.55c-3.787-1.342-7.573-2.686-11.36-4.033a11.434 11.434 0 0 1 2.46-2.894c3.604-3.01 8.58-3.555 13.158-4.57 4.585-1.016 9.56-3.098 11.236-7.48 1.741-4.555-.783-9.473-2.249-14.115a28.442 28.442 0 0 1 .74-19.92 22.17 22.17 0 0 1 14.965-12.722c6.63-1.473 14.123.928 18.2 6.354a11.223 11.223 0 0 1 13.507 6.253 8.125 8.125 0 0 1-.435 7.385c-1.414 2.14-4.44 3.235-6.717 2.045l1.32-3.351c-4.084 1.385-6.739 8.77-6.188 13.05.544 4.273 3.04 8.016 5.572 11.505s5.23 7.015 6.318 11.186c1.567 5.999-.552 12.557-4.469 17.366s-9.437 8.074-15.154 10.475a70.24 70.24 0 0 1-13.275 4.091c.813-1.581 1.618-3.162 2.43-4.744l-9.64 5.832a72.59 72.59 0 0 1-5.622.327c-5.47.094-11.048-.48-16.053-2.662-5.012-2.191-9.416-6.16-11.229-11.316a14.666 14.666 0 0 1-.812-5.194c4.432-.958 8.864-1.913 13.296-2.866z" fill="#2f2e41"/>
<path d="M283.23 578.79h-33.187l-.143-.259a36.186 36.186 0 0 1-1.216-2.423c-3.419-7.318-4.864-15.688-6.139-23.073l-.96-5.566a3.437 3.437 0 0 1 5.41-3.362c5.044 3.67 10.09 7.336 15.137 10.999 1.91 1.39 4.093 3 6.184 4.739.201-.98.412-1.962.623-2.93a3.44 3.44 0 0 1 6.28-1.087l3.884 6.239c2.832 4.555 5.331 9.045 4.822 13.887a.755.755 0 0 1-.013.175c-.102.796-.291 1.577-.564 2.331l-.119.33z" fill="#f0f0f0"/>
<path d="m316.54 579.51-315.36.307a1.19 1.19 0 0 1 0-2.381l315.36-.307a1.19 1.19 0 0 1 0 2.381z" fill="#cacaca"/>
<ellipse cx="89.885" cy="8.645" rx="8.457" ry="8.645" fill="#3f3d56"/>
<ellipse cx="119.1" cy="8.645" rx="8.457" ry="8.645" fill="#3f3d56"/>
<ellipse cx="148.31" cy="8.645" rx="8.457" ry="8.645" fill="#3f3d56"/>
<path d="M181.624 15.478c-.26 0-.519-.1-.714-.3l-5.707-5.834a1 1 0 0 1 0-1.398l5.707-5.833a1.001 1.001 0 0 1 1.43 1.399l-5.023 5.133 5.022 5.134a1 1 0 0 1-.715 1.699ZM191.213 15.478a1 1 0 0 1-.715-1.7l5.021-5.133-5.021-5.133a1 1 0 1 1 1.43-1.399l5.705 5.833a1 1 0 0 1 0 1.398l-5.705 5.833c-.196.2-.455.3-.715.3ZM489.72 1h-10.61c-1.21 0-2.19.98-2.19 2.19v10.62c0 1.21.98 2.19 2.19 2.19h10.61c1.21 0 2.2-.98 2.2-2.19V3.19c0-1.21-.99-2.19-2.2-2.19zM463.72 1h-10.61c-1.21 0-2.19.98-2.19 2.19v10.62c0 1.21.98 2.19 2.19 2.19h10.61c1.21 0 2.2-.98 2.2-2.19V3.19c0-1.21-.99-2.19-2.2-2.19zM514.22 1.5h-10.61c-1.21 0-2.19.98-2.19 2.19v10.62c0 1.21.98 2.19 2.19 2.19h10.61c1.21 0 2.2-.98 2.2-2.19V3.69c0-1.21-.99-2.19-2.2-2.19zM354.3 5.54h-84.81a2.67 2.67 0 1 0 0 5.34h84.81c1.47 0 2.67-1.2 2.67-2.67s-1.2-2.67-2.67-2.67z" fill="#3f3d56"/>
</svg>
